<?xml version="1.0" encoding="UTF-8"?>
<svg xmlns="http://www.w3.org/2000/svg" viewBox="0 0 512 512" fill="#a78bfa">
  <path d="M184 0C214.9 0 240 25.07 240 56V456C240 486.9 214.9 512 184 512H56C25.07 512 0 486.9 0 456V56C0 25.07 25.07 0 56 0H184zM72 112C58.75 112 48 122.7 48 136C48 149.3 58.75 160 72 160H168C181.3 160 192 149.3 192 136C192 122.7 181.3 112 168 112H72zM72 208C58.75 208 48 218.7 48 232C48 245.3 58.75 256 72 256H168C181.3 256 192 245.3 192 232C192 218.7 181.3 208 168 208H72zM72 304C58.75 304 48 314.7 48 328C48 341.3 58.75 352 72 352H168C181.3 352 192 341.3 192 328C192 314.7 181.3 304 168 304H72zM272 120C272 106.7 282.7 96 296 96C309.3 96 320 106.7 320 120V160H336C353.7 160 368 174.3 368 192V224C368 241.7 353.7 256 336 256H304C286.3 256 272 241.7 272 224V120zM272 288C272 270.3 286.3 256 304 256H400C417.7 256 432 270.3 432 288V320C432 337.7 417.7 352 400 352H336V392C336 405.3 325.3 416 312 416C298.7 416 288 405.3 288 392V352.9C278.5 346.8 272 335.2 272 322V288zM384 160C401.7 160 416 174.3 416 192V224C416 241.7 401.7 256 384 256H368V224C368 224 368 224 368 224C368 206.3 353.7 192 336 192H336V160H384zM432 192C448.7 192 464 206.8 464 224H512V320H464C464 337.2 448.7 352 432 352V392C432 405.3 421.3 416 408 416C394.7 416 384 405.3 384 392V352H400C400 352 400 352 400 352C400 334.3 385.7 320 368 320H368V288C368 288 368 288 368 288C368 270.3 353.7 256 336 256V256H384C384 256 384 256 384 256C384 238.3 369.7 224 352 224H352V192H432z"/>
</svg> 