<svg width="168" height="168" viewBox="0 0 168 168" fill="none" xmlns="http://www.w3.org/2000/svg">
  <path fillRule="evenodd" clipRule="evenodd" d="M83.9999 14C45.4547 14 14 45.4547 14 84C14 122.545 45.4547 154 83.9999 154C122.545 154 154 122.545 154 84C154 45.4547 122.545 14 83.9999 14ZM84 140C53.1969 140 28 114.803 28 84C28 53.1969 53.1969 28 84 28C114.803 28 140 53.1969 140 84C140 114.803 114.803 140 84 140Z" fill="url(#paint0_linear_1202_1025)"/>
  
  <path d="M58 54.5L72 84L86 54.5L100 84L114 54.5" stroke="url(#paint1_linear_1202_1025)" strokeWidth="8" strokeLinecap="round" strokeLinejoin="round"/>
  <path d="M58 113.5L72 84L86 113.5L100 84L114 113.5" stroke="url(#paint2_linear_1202_1025)" strokeWidth="8" strokeLinecap="round" strokeLinejoin="round"/>
  
  <circle cx="58" cy="54.5" r="8" fill="#9C5FFF"/>
  <circle cx="86" cy="54.5" r="8" fill="#9C5FFF"/>
  <circle cx="114" cy="54.5" r="8" fill="#9C5FFF"/>
  <circle cx="72" cy="84" r="8" fill="#3A86FF"/>
  <circle cx="100" cy="84" r="8" fill="#3A86FF"/>
  <circle cx="58" cy="113.5" r="8" fill="#9C5FFF"/>
  <circle cx="86" cy="113.5" r="8" fill="#9C5FFF"/>
  <circle cx="114" cy="113.5" r="8" fill="#9C5FFF"/>
  
  <defs>
    <linearGradient id="paint0_linear_1202_1025" x1="14" y1="14" x2="154" y2="154" gradientUnits="userSpaceOnUse">
      <stop offset="0" stopColor="#9C5FFF"/>
      <stop offset="1" stopColor="#3A86FF"/>
    </linearGradient>
    <linearGradient id="paint1_linear_1202_1025" x1="58" y1="54.5" x2="114" y2="54.5" gradientUnits="userSpaceOnUse">
      <stop offset="0" stopColor="#9C5FFF"/>
      <stop offset="1" stopColor="#3A86FF"/>
    </linearGradient>
    <linearGradient id="paint2_linear_1202_1025" x1="58" y1="113.5" x2="114" y2="113.5" gradientUnits="userSpaceOnUse">
      <stop offset="0" stopColor="#9C5FFF"/>
      <stop offset="1" stopColor="#3A86FF"/>
    </linearGradient>
  </defs>
</svg> 